TITLE ""
FILE "DISC1Track10.mp3" MP3
  TRACK 01 AUDIO
    TITLE "DISC1Track10_01"
    INDEX 01 00:00:00
  TRACK 02 AUDIO
    TITLE "DISC1Track10_02"
    INDEX 01 00:02:13
  TRACK 03 AUDIO
    TITLE "DISC1Track10_03"
    INDEX 01 00:02:41
  TRACK 04 AUDIO
    TITLE "DISC1Track10_04"
    INDEX 01 00:05:04
  TRACK 05 AUDIO
    TITLE "DISC1Track10_05"
    INDEX 01 00:07:08
  TRACK 06 AUDIO
    TITLE "DISC1Track10_06"
    INDEX 01 00:09:01
  TRACK 07 AUDIO
    TITLE "DISC1Track10_07"
    INDEX 01 00:09:31
  TRACK 08 AUDIO
    TITLE "DISC1Track10_08"
    INDEX 01 00:11:71
  TRACK 09 AUDIO
    TITLE "DISC1Track10_09"
    INDEX 01 00:14:38
  TRACK 10 AUDIO
    TITLE "DISC1Track10_10"
    INDEX 01 00:16:70
  TRACK 11 AUDIO
    TITLE "DISC1Track10_11"
    INDEX 01 00:17:26
  TRACK 12 AUDIO
    TITLE "DISC1Track10_12"
    INDEX 01 00:22:69
  TRACK 13 AUDIO
    TITLE "DISC1Track10_13"
    INDEX 01 00:26:61
  TRACK 14 AUDIO
    TITLE "DISC1Track10_14"
    INDEX 01 00:30:45
  TRACK 15 AUDIO
    TITLE "DISC1Track10_15"
    INDEX 01 00:30:74
  TRACK 16 AUDIO
    TITLE "DISC1Track10_16"
    INDEX 01 00:34:05
  TRACK 17 AUDIO
    TITLE "DISC1Track10_17"
    INDEX 01 00:36:65
  TRACK 18 AUDIO
    TITLE "DISC1Track10_18"
    INDEX 01 00:39:42
  TRACK 19 AUDIO
    TITLE "DISC1Track10_19"
    INDEX 01 00:39:69
  TRACK 20 AUDIO
    TITLE "DISC1Track10_20"
    INDEX 01 00:41:43
  TRACK 21 AUDIO
    TITLE "DISC1Track10_21"
    INDEX 01 00:43:57
  TRACK 22 AUDIO
    TITLE "DISC1Track10_22"
    INDEX 01 00:45:58
  TRACK 23 AUDIO
    TITLE "DISC1Track10_23"
    INDEX 01 00:46:10
  TRACK 24 AUDIO
    TITLE "DISC1Track10_24"
    INDEX 01 00:48:35
  TRACK 25 AUDIO
    TITLE "DISC1Track10_25"
    INDEX 01 00:50:73
  TRACK 26 AUDIO
    TITLE "DISC1Track10_26"
    INDEX 01 00:53:20
  TRACK 27 AUDIO
    TITLE "DISC1Track10_27"
    INDEX 01 00:53:52
  TRACK 28 AUDIO
    TITLE "DISC1Track10_28"
    INDEX 01 00:56:15
  TRACK 29 AUDIO
    TITLE "DISC1Track10_29"
    INDEX 01 00:58:35
  TRACK 30 AUDIO
    TITLE "DISC1Track10_30"
    INDEX 01 01:00:44
  TRACK 31 AUDIO
    TITLE "DISC1Track10_31"
    INDEX 01 01:00:73
  TRACK 32 AUDIO
    TITLE "DISC1Track10_32"
    INDEX 01 01:06:33
  TRACK 33 AUDIO
    TITLE "DISC1Track10_33"
    INDEX 01 01:10:56
  TRACK 34 AUDIO
    TITLE "DISC1Track10_34"
    INDEX 01 01:14:69
  TRACK 35 AUDIO
    TITLE "DISC1Track10_35"
    INDEX 01 01:15:24
  TRACK 36 AUDIO
    TITLE "DISC1Track10_36"
    INDEX 01 01:17:74
  TRACK 37 AUDIO
    TITLE "DISC1Track10_37"
    INDEX 01 01:20:43
  TRACK 38 AUDIO
    TITLE "DISC1Track10_38"
    INDEX 01 01:23:08
  TRACK 39 AUDIO
    TITLE "DISC1Track10_39"
    INDEX 01 01:23:37
  TRACK 40 AUDIO
    TITLE "DISC1Track10_40"
    INDEX 01 01:25:48
  TRACK 41 AUDIO
    TITLE "DISC1Track10_41"
    INDEX 01 01:28:11
  TRACK 42 AUDIO
    TITLE "DISC1Track10_42"
    INDEX 01 01:30:31
  TRACK 43 AUDIO
    TITLE "DISC1Track10_43"
    INDEX 01 01:30:61
  TRACK 44 AUDIO
    TITLE "DISC1Track10_44"
    INDEX 01 01:33:33
  TRACK 45 AUDIO
    TITLE "DISC1Track10_45"
    INDEX 01 01:35:72
  TRACK 46 AUDIO
    TITLE "DISC1Track10_46"
    INDEX 01 01:38:23
  TRACK 47 AUDIO
    TITLE "DISC1Track10_47"
    INDEX 01 01:38:54
  TRACK 48 AUDIO
    TITLE "DISC1Track10_48"
    INDEX 01 01:41:35
  TRACK 49 AUDIO
    TITLE "DISC1Track10_49"
    INDEX 01 01:43:63
  TRACK 50 AUDIO
    TITLE "DISC1Track10_50"
    INDEX 01 01:45:72
